<svg width="25" height="24" viewBox="0 0 25 24" fill="none" xmlns="http://www.w3.org/2000/svg">
<rect x="0.5" width="24" height="24" rx="12" fill="#006FFD"/>
<mask id="mask0_894_3658" style="mask-type:alpha" maskUnits="userSpaceOnUse" x="8" y="7" width="9" height="10">
<path d="M10.8922 15.5868L15.059 11.4201L13.0798 9.44094L8.91309 13.6077C8.85572 13.6651 8.81497 13.737 8.79516 13.8157L8.33334 16.1666L10.6837 15.7048C10.7626 15.685 10.8348 15.6442 10.8922 15.5868ZM16.4041 10.0749C16.5722 9.90678 16.6667 9.67873 16.6667 9.44094C16.6667 9.20315 16.5722 8.9751 16.4041 8.80693L15.693 8.09581C15.5248 7.92769 15.2968 7.83325 15.059 7.83325C14.8212 7.83325 14.5931 7.92769 14.425 8.09581L13.7139 8.80693L15.693 10.7861L16.4041 10.0749Z" fill="#006FFD"/>
</mask>
<g mask="url(#mask0_894_3658)">
<rect x="7.5" y="7" width="10" height="10" fill="white"/>
</g>
</svg>
