<svg width="327" height="61" viewBox="0 0 327 61" fill="none" xmlns="http://www.w3.org/2000/svg">
<path d="M98.8416 38.22L91.1721 10.8227C91.0833 10.5057 91.3084 10.1871 91.6372 10.1695C97.3336 9.86437 103.062 10.5969 105.473 11.4569C107.878 12.3144 111.723 13.5972 115.236 18.0417C115.451 18.3133 115.867 18.3165 116.081 18.0437C118.289 15.2198 120.921 12.63 124.95 11.4569C129.103 10.2474 133.856 9.37042 139.738 10.1287C140.047 10.1684 140.246 10.4717 140.166 10.7717L132.813 38.2603C132.723 38.5953 132.336 38.7495 132.035 38.5777C129.495 37.1286 127.104 36.4336 124.95 36.4336C122.708 36.4336 118.538 37.2696 115.935 38.7662C115.764 38.8645 115.553 38.8647 115.383 38.7641C112.656 37.1487 109.859 36.6061 107.439 36.4336C105.158 36.2709 101.891 37.1733 99.658 38.5265C99.3505 38.7128 98.9385 38.5662 98.8416 38.22Z" fill="url(#paint0_linear_691_1934)"/>
<path d="M95.8911 8.0885L95.1806 5.96052C95.0625 5.60674 95.3508 5.24813 95.7223 5.28121C107.233 6.30632 109.713 7.72835 115.479 16.4522C108.156 8.04031 103.845 8.80377 96.3585 8.44173C96.1455 8.43143 95.9586 8.29079 95.8911 8.0885Z" fill="#35BEFF" stroke="#35BEFF" stroke-width="0.25947"/>
<path d="M96.8963 2.68763L96.8962 1.61365C96.8962 1.29262 97.1923 1.04971 97.5086 1.10426C109.008 3.08713 110.349 4.81118 115.404 14.0235C108.825 5.07978 104.71 4.20933 97.3476 3.20228C97.0904 3.1671 96.8963 2.94725 96.8963 2.68763Z" fill="#35BEFF" stroke="#35BEFF" stroke-width="0.25947"/>
<path d="M126.725 35.338C125.147 35.338 123.635 35.1314 122.189 34.7182C120.743 34.2863 119.578 33.7322 118.696 33.0561L120.245 29.6193C121.09 30.2203 122.086 30.7179 123.231 31.1123C124.396 31.4879 125.57 31.6758 126.753 31.6758C127.654 31.6758 128.377 31.5912 128.922 31.4222C129.485 31.2344 129.898 30.9809 130.161 30.6616C130.424 30.3423 130.556 29.9761 130.556 29.5629C130.556 29.0371 130.349 28.6239 129.936 28.3234C129.523 28.0041 128.978 27.7506 128.302 27.5628C127.626 27.3562 126.875 27.1684 126.048 26.9994C125.241 26.8116 124.424 26.5862 123.598 26.3233C122.79 26.0603 122.048 25.7223 121.372 25.3091C120.696 24.8959 120.142 24.3513 119.71 23.6752C119.297 22.9991 119.09 22.1352 119.09 21.0834C119.09 19.9566 119.391 18.933 119.992 18.0128C120.611 17.0738 121.532 16.3319 122.752 15.7873C123.992 15.2239 125.541 14.9421 127.401 14.9421C128.64 14.9421 129.861 15.0924 131.063 15.3929C132.265 15.6746 133.326 16.1066 134.246 16.6888L132.838 20.1538C131.917 19.6279 130.997 19.2429 130.077 18.9988C129.157 18.7359 128.255 18.6044 127.372 18.6044C126.49 18.6044 125.767 18.7077 125.203 18.9143C124.64 19.1209 124.236 19.3932 123.992 19.7312C123.748 20.0505 123.626 20.4261 123.626 20.8581C123.626 21.3651 123.832 21.7783 124.245 22.0976C124.659 22.3981 125.203 22.6422 125.879 22.83C126.555 23.0179 127.297 23.2057 128.105 23.3935C128.931 23.5813 129.748 23.7972 130.556 24.0414C131.382 24.2855 132.133 24.6142 132.809 25.0274C133.486 25.4406 134.03 25.9852 134.443 26.6613C134.875 27.3374 135.091 28.1919 135.091 29.2249C135.091 30.3329 134.781 31.3471 134.162 32.2673C133.542 33.1876 132.612 33.9294 131.373 34.4929C130.152 35.0563 128.603 35.338 126.725 35.338ZM145.985 35.2253C144.257 35.2253 142.736 34.8873 141.421 34.2111C140.125 33.535 139.121 32.6148 138.407 31.4504C137.693 30.2672 137.336 28.9244 137.336 27.4219C137.336 25.9007 137.684 24.5579 138.379 23.3935C139.092 22.2103 140.06 21.29 141.28 20.6327C142.501 19.9566 143.882 19.6185 145.422 19.6185C146.905 19.6185 148.239 19.9378 149.422 20.5764C150.624 21.1961 151.572 22.0976 152.267 23.2808C152.962 24.4452 153.309 25.8443 153.309 27.4783C153.309 27.6473 153.3 27.8445 153.281 28.0699C153.262 28.2764 153.244 28.4736 153.225 28.6615H140.914V26.0979H150.915L149.225 26.8585C149.225 26.0697 149.065 25.3842 148.746 24.802C148.426 24.2198 147.985 23.7691 147.422 23.4498C146.858 23.1118 146.201 22.9427 145.45 22.9427C144.698 22.9427 144.032 23.1118 143.45 23.4498C142.886 23.7691 142.445 24.2292 142.126 24.8302C141.806 25.4124 141.647 26.1073 141.647 26.9148V27.591C141.647 28.4173 141.825 29.1498 142.182 29.7883C142.557 30.4081 143.074 30.887 143.731 31.225C144.407 31.5443 145.196 31.7039 146.098 31.7039C146.905 31.7039 147.609 31.5819 148.21 31.3377C148.83 31.0936 149.394 30.7273 149.901 30.239L152.239 32.7744C151.544 33.5632 150.671 34.1736 149.619 34.6055C148.567 35.0187 147.356 35.2253 145.985 35.2253ZM156.799 34.9999V14.097H161.193V34.9999H156.799ZM166.371 34.9999V19.5059C166.371 17.7968 166.878 16.4352 167.892 15.4211C168.906 14.3881 170.352 13.8716 172.23 13.8716C172.869 13.8716 173.479 13.9374 174.061 14.0688C174.662 14.2003 175.169 14.4069 175.583 14.6886L174.428 17.8719C174.183 17.7029 173.911 17.5714 173.611 17.4775C173.31 17.3836 172.991 17.3367 172.653 17.3367C172.014 17.3367 171.517 17.5245 171.16 17.9001C170.822 18.2569 170.653 18.8016 170.653 19.534V20.9426L170.765 22.83V34.9999H166.371ZM164.032 23.5625V20.182H174.54V23.5625H164.032ZM120.471 59.9999V44.5059C120.471 42.7968 120.978 41.4352 121.992 40.4211C123.006 39.3881 124.452 38.8716 126.33 38.8716C126.969 38.8716 127.579 38.9374 128.161 39.0688C128.762 39.2003 129.269 39.4069 129.682 39.6886L128.527 42.8719C128.283 42.7029 128.011 42.5714 127.711 42.4775C127.41 42.3836 127.091 42.3367 126.753 42.3367C126.114 42.3367 125.616 42.5245 125.26 42.9001C124.922 43.2569 124.753 43.8016 124.753 44.534V45.9426L124.865 47.83V59.9999H120.471ZM118.132 48.5625V45.182H128.64V48.5625H118.132ZM131.119 59.9999V44.8439H135.514V59.9999H131.119ZM133.317 42.7311C132.509 42.7311 131.852 42.4963 131.345 42.0268C130.837 41.5573 130.584 40.9751 130.584 40.2802C130.584 39.5853 130.837 39.0031 131.345 38.5336C131.852 38.0641 132.509 37.8293 133.317 37.8293C134.124 37.8293 134.781 38.0547 135.289 38.5054C135.796 38.9374 136.049 39.5008 136.049 40.1957C136.049 40.9281 135.796 41.5385 135.289 42.0268C134.8 42.4963 134.143 42.7311 133.317 42.7311ZM149.353 44.6185C150.555 44.6185 151.626 44.8627 152.565 45.351C153.523 45.8205 154.274 46.553 154.819 47.5483C155.363 48.5249 155.636 49.7832 155.636 51.3233V59.9999H151.241V51.9994C151.241 50.7786 150.969 49.8771 150.424 49.2949C149.898 48.7127 149.147 48.4216 148.17 48.4216C147.475 48.4216 146.846 48.5719 146.283 48.8724C145.738 49.1541 145.306 49.5954 144.987 50.1964C144.686 50.7974 144.536 51.5674 144.536 52.5064V59.9999H140.141V44.8439H144.339V49.0414L143.55 47.7737C144.095 46.7595 144.874 45.9801 145.888 45.4355C146.902 44.8909 148.057 44.6185 149.353 44.6185ZM169.479 59.9999V57.042L169.197 56.394V51.0979C169.197 50.1589 168.906 49.4264 168.324 48.9005C167.761 48.3747 166.887 48.1118 165.704 48.1118C164.896 48.1118 164.098 48.2432 163.309 48.5061C162.539 48.7503 161.882 49.0884 161.338 49.5203L159.76 46.4497C160.586 45.8675 161.582 45.4167 162.746 45.0975C163.91 44.7782 165.094 44.6185 166.296 44.6185C168.606 44.6185 170.399 45.1632 171.676 46.2525C172.953 47.3417 173.592 49.0414 173.592 51.3514V59.9999H169.479ZM164.859 60.2253C163.676 60.2253 162.662 60.0281 161.816 59.6337C160.971 59.2205 160.323 58.6665 159.873 57.9716C159.422 57.2767 159.196 56.4973 159.196 55.6334C159.196 54.732 159.412 53.9432 159.844 53.2671C160.295 52.591 160.999 52.0651 161.957 51.6895C162.915 51.2951 164.164 51.0979 165.704 51.0979H169.732V53.6615H166.183C165.15 53.6615 164.436 53.8305 164.042 54.1685C163.666 54.5066 163.479 54.9291 163.479 55.4362C163.479 55.9996 163.694 56.4504 164.126 56.7884C164.577 57.1077 165.188 57.2673 165.958 57.2673C166.69 57.2673 167.347 57.0983 167.93 56.7603C168.512 56.4034 168.934 55.887 169.197 55.2109L169.873 57.2392C169.554 58.2158 168.972 58.9576 168.127 59.4647C167.282 59.9718 166.192 60.2253 164.859 60.2253ZM187.345 44.6185C188.547 44.6185 189.617 44.8627 190.556 45.351C191.514 45.8205 192.265 46.553 192.81 47.5483C193.354 48.5249 193.627 49.7832 193.627 51.3233V59.9999H189.232V51.9994C189.232 50.7786 188.96 49.8771 188.415 49.2949C187.889 48.7127 187.138 48.4216 186.161 48.4216C185.467 48.4216 184.837 48.5719 184.274 48.8724C183.729 49.1541 183.297 49.5954 182.978 50.1964C182.678 50.7974 182.527 51.5674 182.527 52.5064V59.9999H178.133V44.8439H182.33V49.0414L181.541 47.7737C182.086 46.7595 182.865 45.9801 183.88 45.4355C184.894 44.8909 186.049 44.6185 187.345 44.6185ZM205.608 60.2253C203.974 60.2253 202.519 59.8966 201.242 59.2393C199.965 58.5632 198.96 57.6336 198.227 56.4504C197.514 55.2672 197.157 53.9244 197.157 52.4219C197.157 50.9007 197.514 49.5579 198.227 48.3935C198.96 47.2103 199.965 46.29 201.242 45.6327C202.519 44.9566 203.974 44.6185 205.608 44.6185C207.205 44.6185 208.594 44.9566 209.778 45.6327C210.961 46.29 211.834 47.2385 212.398 48.478L208.989 50.3091C208.594 49.5954 208.097 49.0696 207.496 48.7315C206.914 48.3935 206.275 48.2244 205.58 48.2244C204.829 48.2244 204.153 48.3935 203.552 48.7315C202.951 49.0696 202.472 49.5485 202.115 50.1682C201.777 50.788 201.608 51.5392 201.608 52.4219C201.608 53.3046 201.777 54.0558 202.115 54.6756C202.472 55.2954 202.951 55.7743 203.552 56.1123C204.153 56.4504 204.829 56.6194 205.58 56.6194C206.275 56.6194 206.914 56.4598 207.496 56.1405C208.097 55.8025 208.594 55.2672 208.989 54.5348L212.398 56.394C211.834 57.6148 210.961 58.5632 209.778 59.2393C208.594 59.8966 207.205 60.2253 205.608 60.2253ZM222.82 60.2253C221.093 60.2253 219.571 59.8873 218.257 59.2111C216.961 58.535 215.956 57.6148 215.242 56.4504C214.529 55.2672 214.172 53.9244 214.172 52.4219C214.172 50.9007 214.519 49.5579 215.214 48.3935C215.928 47.2103 216.895 46.29 218.116 45.6327C219.337 44.9566 220.717 44.6185 222.257 44.6185C223.741 44.6185 225.074 44.9378 226.257 45.5764C227.459 46.1961 228.408 47.0976 229.103 48.2808C229.797 49.4452 230.145 50.8443 230.145 52.4783C230.145 52.6473 230.135 52.8445 230.117 53.0699C230.098 53.2764 230.079 53.4736 230.06 53.6615H217.75V51.0979H227.75L226.06 51.8585C226.06 51.0697 225.9 50.3842 225.581 49.802C225.262 49.2198 224.821 48.7691 224.257 48.4498C223.694 48.1118 223.036 47.9427 222.285 47.9427C221.534 47.9427 220.867 48.1118 220.285 48.4498C219.722 48.7691 219.28 49.2292 218.961 49.8302C218.642 50.4124 218.482 51.1073 218.482 51.9148V52.591C218.482 53.4173 218.66 54.1498 219.017 54.7883C219.393 55.4081 219.909 55.887 220.567 56.225C221.243 56.5443 222.032 56.7039 222.933 56.7039C223.741 56.7039 224.445 56.5819 225.046 56.3377C225.666 56.0936 226.229 55.7273 226.736 55.239L229.074 57.7744C228.379 58.5632 227.506 59.1736 226.454 59.6055C225.403 60.0187 224.191 60.2253 222.82 60.2253Z" fill="#0C0B20"/>
<defs>
<linearGradient id="paint0_linear_691_1934" x1="137.815" y1="9.92028" x2="101.039" y2="33.3433" gradientUnits="userSpaceOnUse">
<stop stop-color="#007AFF"/>
<stop offset="1" stop-color="#35BEFF"/>
</linearGradient>
</defs>
</svg>
