<svg width="375" height="812" viewBox="0 0 375 812" fill="none" xmlns="http://www.w3.org/2000/svg">
<rect width="375" height="812" rx="24" fill="#0C0B20"/>
<path d="M61.3916 422.905L45.3455 365.496C45.1673 364.858 45.62 364.218 46.2811 364.182C58.1935 363.537 70.1824 365.071 75.2257 366.872C80.2555 368.668 88.3015 371.357 95.6473 380.686C96.0786 381.234 96.9168 381.24 97.3455 380.69C101.963 374.768 107.467 369.331 115.9 366.872C124.584 364.339 134.523 362.503 146.829 364.1C147.448 364.18 147.85 364.79 147.689 365.393L132.306 422.987C132.126 423.661 131.347 423.971 130.742 423.624C125.419 420.576 120.412 419.114 115.9 419.114C111.212 419.114 102.487 420.867 97.0521 424.005C96.7078 424.203 96.2825 424.204 95.9408 424.001C90.24 420.612 84.3903 419.475 79.3304 419.114C74.5507 418.772 67.6985 420.674 63.0334 423.52C62.4156 423.897 61.5864 423.602 61.3916 422.905Z" fill="url(#paint0_linear_691_1858)"/>
<path d="M55.2233 359.853L53.7108 355.315C53.4736 354.604 54.0545 353.883 54.8017 353.949C78.8925 356.094 84.0692 359.058 96.1223 377.32C80.819 359.716 71.8159 361.324 56.1638 360.564C55.7351 360.543 55.359 360.26 55.2233 359.853Z" fill="#35BEFF" stroke="#35BEFF" stroke-width="0.52196"/>
<path d="M57.3139 348.566L57.3139 346.234C57.3139 345.589 57.9101 345.1 58.5465 345.21C82.6047 349.361 85.4004 352.959 95.9639 372.24C82.2161 353.519 73.6196 351.71 58.2223 349.602C57.7048 349.531 57.3139 349.088 57.3139 348.566Z" fill="#35BEFF" stroke="#35BEFF" stroke-width="0.52196"/>
<path d="M119.408 415.615C116.234 415.615 113.193 415.199 110.284 414.368C107.375 413.499 105.032 412.385 103.257 411.025L106.374 404.111C108.074 405.32 110.076 406.321 112.381 407.114C114.723 407.87 117.084 408.248 119.464 408.248C121.278 408.248 122.732 408.078 123.828 407.738C124.961 407.36 125.792 406.85 126.321 406.208C126.85 405.565 127.115 404.829 127.115 403.997C127.115 402.94 126.699 402.108 125.868 401.504C125.037 400.862 123.941 400.352 122.581 399.974C121.221 399.558 119.71 399.181 118.048 398.84C116.423 398.463 114.78 398.009 113.117 397.48C111.493 396.951 110 396.271 108.64 395.44C107.28 394.609 106.166 393.514 105.297 392.153C104.466 390.793 104.05 389.055 104.05 386.94C104.05 384.673 104.655 382.614 105.863 380.763C107.11 378.874 108.961 377.381 111.417 376.286C113.911 375.152 117.027 374.586 120.768 374.586C123.261 374.586 125.717 374.888 128.135 375.492C130.553 376.059 132.687 376.928 134.538 378.099L131.705 385.07C129.854 384.012 128.003 383.237 126.151 382.746C124.3 382.217 122.487 381.953 120.711 381.953C118.935 381.953 117.481 382.161 116.347 382.576C115.214 382.992 114.402 383.54 113.911 384.22C113.419 384.862 113.174 385.618 113.174 386.486C113.174 387.507 113.589 388.338 114.421 388.98C115.252 389.584 116.347 390.076 117.708 390.453C119.068 390.831 120.56 391.209 122.184 391.587C123.847 391.965 125.49 392.399 127.115 392.89C128.777 393.381 130.288 394.042 131.648 394.874C133.008 395.705 134.104 396.8 134.935 398.16C135.804 399.521 136.239 401.24 136.239 403.317C136.239 405.546 135.615 407.587 134.368 409.438C133.122 411.289 131.252 412.781 128.758 413.915C126.302 415.048 123.186 415.615 119.408 415.615ZM158.153 415.388C154.677 415.388 151.617 414.708 148.972 413.348C146.365 411.988 144.344 410.137 142.908 407.794C141.473 405.414 140.755 402.713 140.755 399.691C140.755 396.63 141.454 393.929 142.852 391.587C144.287 389.207 146.233 387.355 148.689 386.033C151.144 384.673 153.921 383.993 157.019 383.993C160.004 383.993 162.686 384.635 165.066 385.92C167.484 387.166 169.392 388.98 170.79 391.36C172.188 393.702 172.887 396.517 172.887 399.804C172.887 400.144 172.868 400.541 172.83 400.994C172.792 401.41 172.755 401.806 172.717 402.184H147.952V397.027H168.07L164.67 398.557C164.67 396.97 164.348 395.591 163.706 394.42C163.064 393.249 162.176 392.342 161.043 391.7C159.909 391.02 158.587 390.68 157.076 390.68C155.565 390.68 154.223 391.02 153.052 391.7C151.919 392.342 151.031 393.268 150.389 394.477C149.747 395.648 149.425 397.046 149.425 398.67V400.031C149.425 401.693 149.784 403.166 150.502 404.451C151.258 405.698 152.297 406.661 153.619 407.341C154.979 407.983 156.566 408.304 158.379 408.304C160.004 408.304 161.421 408.059 162.629 407.568C163.876 407.077 165.01 406.34 166.03 405.358L170.733 410.458C169.335 412.045 167.579 413.272 165.463 414.141C163.347 414.973 160.911 415.388 158.153 415.388ZM179.906 414.935V372.886H188.746V414.935H179.906ZM199.161 414.935V383.766C199.161 380.328 200.181 377.589 202.221 375.549C204.262 373.471 207.171 372.432 210.949 372.432C212.233 372.432 213.461 372.565 214.632 372.829C215.841 373.093 216.861 373.509 217.692 374.076L215.369 380.479C214.878 380.139 214.33 379.875 213.725 379.686C213.121 379.497 212.479 379.403 211.799 379.403C210.514 379.403 209.513 379.781 208.795 380.536C208.115 381.254 207.775 382.35 207.775 383.823V386.656L208.002 390.453V414.935H199.161ZM194.458 391.927V385.126H215.596V391.927H194.458ZM106.827 464.935V433.766C106.827 430.328 107.847 427.589 109.887 425.549C111.927 423.471 114.836 422.432 118.614 422.432C119.899 422.432 121.127 422.565 122.298 422.829C123.507 423.093 124.527 423.509 125.358 424.076L123.034 430.479C122.543 430.139 121.996 429.875 121.391 429.686C120.787 429.497 120.144 429.403 119.464 429.403C118.18 429.403 117.179 429.781 116.461 430.536C115.781 431.254 115.441 432.35 115.441 433.823V436.656L115.667 440.453V464.935H106.827ZM102.123 441.927V435.126H123.261V441.927H102.123ZM128.248 464.935V434.446H137.089V464.935H128.248ZM132.668 430.196C131.044 430.196 129.722 429.724 128.701 428.779C127.681 427.835 127.171 426.664 127.171 425.266C127.171 423.868 127.681 422.697 128.701 421.752C129.722 420.808 131.044 420.336 132.668 420.336C134.293 420.336 135.615 420.789 136.635 421.696C137.655 422.565 138.165 423.698 138.165 425.096C138.165 426.569 137.655 427.797 136.635 428.779C135.653 429.724 134.331 430.196 132.668 430.196ZM164.929 433.993C167.347 433.993 169.5 434.484 171.389 435.466C173.316 436.411 174.827 437.884 175.923 439.887C177.018 441.851 177.566 444.382 177.566 447.48V464.935H168.725V448.84C168.725 446.385 168.178 444.571 167.082 443.4C166.024 442.229 164.513 441.643 162.548 441.643C161.151 441.643 159.885 441.946 158.752 442.55C157.656 443.117 156.787 444.005 156.145 445.214C155.54 446.423 155.238 447.972 155.238 449.861V464.935H146.398V434.446H154.841V442.89L153.255 440.34C154.35 438.3 155.918 436.732 157.958 435.636C159.998 434.541 162.322 433.993 164.929 433.993ZM205.414 464.935V458.984L204.847 457.681V447.027C204.847 445.138 204.262 443.665 203.09 442.607C201.957 441.549 200.2 441.02 197.82 441.02C196.196 441.02 194.59 441.285 193.003 441.813C191.454 442.305 190.132 442.985 189.036 443.854L185.863 437.677C187.525 436.505 189.527 435.599 191.87 434.956C194.212 434.314 196.592 433.993 199.01 433.993C203.657 433.993 207.265 435.089 209.834 437.28C212.403 439.471 213.688 442.89 213.688 447.537V464.935H205.414ZM196.12 465.388C193.74 465.388 191.7 464.991 190 464.198C188.3 463.367 186.996 462.252 186.09 460.855C185.183 459.457 184.729 457.889 184.729 456.151C184.729 454.337 185.164 452.751 186.033 451.391C186.94 450.031 188.356 448.973 190.283 448.217C192.21 447.424 194.722 447.027 197.82 447.027H205.924V452.184H198.784C196.706 452.184 195.27 452.524 194.477 453.204C193.721 453.884 193.343 454.734 193.343 455.754C193.343 456.888 193.778 457.794 194.647 458.474C195.553 459.117 196.781 459.438 198.33 459.438C199.804 459.438 201.126 459.098 202.297 458.418C203.468 457.7 204.318 456.661 204.847 455.301L206.207 459.381C205.565 461.346 204.394 462.838 202.694 463.858C200.994 464.878 198.802 465.388 196.12 465.388ZM241.353 433.993C243.771 433.993 245.925 434.484 247.814 435.466C249.74 436.411 251.252 437.884 252.347 439.887C253.443 441.851 253.991 444.382 253.991 447.48V464.935H245.15V448.84C245.15 446.385 244.602 444.571 243.507 443.4C242.449 442.229 240.938 441.643 238.973 441.643C237.575 441.643 236.31 441.946 235.176 442.55C234.081 443.117 233.212 444.005 232.569 445.214C231.965 446.423 231.663 447.972 231.663 449.861V464.935H222.822V434.446H231.266V442.89L229.679 440.34C230.775 438.3 232.343 436.732 234.383 435.636C236.423 434.541 238.746 433.993 241.353 433.993ZM278.093 465.388C274.806 465.388 271.878 464.727 269.309 463.405C266.74 462.045 264.719 460.174 263.246 457.794C261.81 455.414 261.092 452.713 261.092 449.691C261.092 446.63 261.81 443.929 263.246 441.587C264.719 439.207 266.74 437.355 269.309 436.033C271.878 434.673 274.806 433.993 278.093 433.993C281.304 433.993 284.1 434.673 286.48 436.033C288.86 437.355 290.617 439.263 291.751 441.757L284.894 445.44C284.1 444.005 283.099 442.947 281.89 442.267C280.719 441.587 279.434 441.247 278.036 441.247C276.525 441.247 275.165 441.587 273.956 442.267C272.747 442.947 271.784 443.91 271.066 445.157C270.386 446.404 270.046 447.915 270.046 449.691C270.046 451.466 270.386 452.977 271.066 454.224C271.784 455.471 272.747 456.434 273.956 457.114C275.165 457.794 276.525 458.134 278.036 458.134C279.434 458.134 280.719 457.813 281.89 457.171C283.099 456.491 284.1 455.414 284.894 453.941L291.751 457.681C290.617 460.137 288.86 462.045 286.48 463.405C284.1 464.727 281.304 465.388 278.093 465.388ZM312.718 465.388C309.242 465.388 306.182 464.708 303.537 463.348C300.93 461.988 298.909 460.137 297.473 457.794C296.038 455.414 295.32 452.713 295.32 449.691C295.32 446.63 296.019 443.929 297.417 441.587C298.852 439.207 300.798 437.355 303.254 436.033C305.709 434.673 308.486 433.993 311.584 433.993C314.569 433.993 317.251 434.635 319.631 435.92C322.049 437.166 323.957 438.98 325.355 441.36C326.753 443.702 327.452 446.517 327.452 449.804C327.452 450.144 327.433 450.541 327.395 450.994C327.357 451.41 327.32 451.806 327.282 452.184H302.517V447.027H322.635L319.235 448.557C319.235 446.97 318.913 445.591 318.271 444.42C317.629 443.249 316.741 442.342 315.608 441.7C314.474 441.02 313.152 440.68 311.641 440.68C310.13 440.68 308.788 441.02 307.617 441.7C306.484 442.342 305.596 443.268 304.954 444.477C304.312 445.648 303.99 447.046 303.99 448.67V450.031C303.99 451.693 304.349 453.166 305.067 454.451C305.823 455.698 306.862 456.661 308.184 457.341C309.544 457.983 311.131 458.304 312.944 458.304C314.569 458.304 315.986 458.059 317.194 457.568C318.441 457.077 319.575 456.34 320.595 455.358L325.298 460.458C323.9 462.045 322.144 463.272 320.028 464.141C317.912 464.973 315.475 465.388 312.718 465.388Z" fill="white"/>
<defs>
<linearGradient id="paint0_linear_691_1858" x1="142.767" y1="363.658" x2="65.8968" y2="412.541" gradientUnits="userSpaceOnUse">
<stop stop-color="#007AFF"/>
<stop offset="1" stop-color="#35BEFF"/>
</linearGradient>
</defs>
</svg>
